<svg width="218" height="218" viewBox="0 0 218 218" fill="none" xmlns="http://www.w3.org/2000/svg">
<g id="Glutenvrij" clip-path="url(#clip0)">
<path id="Circel" d="M108.98 212.48C166.141 212.48 212.48 166.141 212.48 108.98C212.48 51.8185 166.141 5.48 108.98 5.48C51.8185 5.48 5.48001 51.8185 5.48001 108.98C5.48001 166.141 51.8185 212.48 108.98 212.48Z" fill="#6AC92D" stroke="black" stroke-width="10.97" stroke-miterlimit="10"/>
<g id="Graan">
<path id="Vector" d="M113.11 74.41C117.496 68.4706 119.941 61.3215 120.11 53.94C120.237 45.5015 117.438 37.2793 112.19 30.67C110.98 29.1603 109.642 27.7584 108.19 26.48C104.576 29.8884 101.696 33.9993 99.7284 38.5606C97.7603 43.1219 96.7451 48.0372 96.7451 53.005C96.7451 57.9728 97.7603 62.8881 99.7284 67.4494C101.696 72.0107 104.576 76.1216 108.19 79.53L113.11 74.41Z" fill="black" stroke="black" stroke-width="3.62" stroke-miterlimit="10"/>
<path id="Vector_2" d="M119.12 101.54C126.169 100.387 132.633 96.9178 137.49 91.68C145.37 83.2 146.55 72.91 146.75 68.97C146.85 66.9948 146.786 65.0147 146.56 63.05C141.686 62.9528 136.85 63.927 132.394 65.9037C127.937 67.8805 123.969 70.8116 120.77 74.49C110.96 85.86 112.07 99.64 112.28 101.78L119.12 101.54Z" fill="black" stroke="black" stroke-width="3.62" stroke-miterlimit="10"/>
<path id="Vector_3" d="M97.68 101.73C90.6324 100.572 84.17 97.1036 79.31 91.87C71.43 83.38 70.31 73.1 70.06 69.16C69.9577 67.1851 70.0179 65.2051 70.24 63.24C75.1089 63.1486 79.9386 64.1255 84.3892 66.102C88.8398 68.0785 92.8031 71.0066 96 74.68C105.8 86.05 104.69 99.83 104.48 101.97L97.68 101.73Z" fill="black" stroke="black" stroke-width="3.62" stroke-miterlimit="10"/>
<path id="Vector_4" d="M119.31 137.26C126.358 136.102 132.82 132.634 137.68 127.4C145.56 118.91 146.74 108.62 146.94 104.69C147.04 102.715 146.977 100.735 146.75 98.77C141.883 98.6761 137.055 99.6509 132.606 101.626C128.157 103.601 124.195 106.528 121 110.2C111.19 121.58 112.3 135.36 112.51 137.5L119.31 137.26Z" fill="black" stroke="black" stroke-width="3.62" stroke-miterlimit="10"/>
<path id="Vector_5" d="M97.87 137.45C90.8224 136.292 84.36 132.824 79.5 127.59C71.63 119.1 70.5 108.81 70.25 104.88C70.1495 102.918 70.2097 100.952 70.43 99C75.305 98.9001 80.1425 99.872 84.6006 101.847C89.0587 103.822 93.0287 106.752 96.23 110.43C106.03 121.81 104.92 135.59 104.71 137.73L97.87 137.45Z" fill="black" stroke="black" stroke-width="3.62" stroke-miterlimit="10"/>
<path id="Vector_6" d="M119.31 173.56C126.358 172.402 132.82 168.934 137.68 163.7C145.56 155.21 146.74 144.92 146.94 140.98C147.04 139.005 146.976 137.025 146.75 135.06C141.883 134.969 137.054 135.946 132.605 137.922C128.156 139.899 124.195 142.827 121 146.5C111.19 157.87 112.3 171.65 112.51 173.8L119.31 173.56Z" fill="black" stroke="black" stroke-width="3.62" stroke-miterlimit="10"/>
<path id="Vector_7" d="M97.87 173.74C90.8207 172.587 84.3567 169.118 79.5 163.88C71.63 155.4 70.5 145.11 70.25 141.17C70.1477 139.195 70.2079 137.215 70.43 135.25C75.3056 135.153 80.1431 136.127 84.6011 138.103C89.059 140.08 93.0287 143.011 96.23 146.69C106.03 158.06 104.92 171.84 104.71 173.98L97.87 173.74Z" fill="black" stroke="black" stroke-width="3.62" stroke-miterlimit="10"/>
</g>
<g id="strepen">
<path id="Streep2" d="M33.2 179.46L58.98 154.98" stroke="black" stroke-width="15" stroke-miterlimit="10"/>
<path id="Streep1" d="M181.84 35.48L156.48 60.48" stroke="black" stroke-width="15" stroke-miterlimit="10"/>
</g>
</g>
<defs>
<clipPath id="clip0">
<rect width="217.97" height="217.97" fill="white"/>
</clipPath>
</defs>
</svg>
