<svg width="74" height="107" viewBox="0 0 74 107" fill="none" xmlns="http://www.w3.org/2000/svg">
<g id="ijs">
<g id="bottom">
<path id="Vector" d="M1 24.83L37 106.83L73 24.83H1Z" fill="white"/>
</g>
<g id="top">
<path id="Vector_2" d="M38 13.83C38.32 13.77 38.39 12.76 38.41 12.5C38.68 9.18 42.55 5 46 2.83C46.87 2.28 53.36 -1.69 61 0.830002C64.2125 1.94192 67.0445 3.94085 69.1682 6.59543C71.2919 9.25002 72.6204 12.4517 73 15.83C73.055 16.4955 73.055 17.1645 73 17.83H0.999992C0.949221 17.1643 0.949221 16.4957 0.999992 15.83C1.39999 10.24 5.16999 5.37 8.99999 2.83C15.66 -1.58 24 -0.169999 29 2.83C30.78 3.9 34.19 5.96 36 9.83C36.76 11.45 37.48 13.92 38 13.83Z" fill="white"/>
</g>
</g>
</svg>
