<svg width="218" height="218" viewBox="0 0 218 218" fill="none" xmlns="http://www.w3.org/2000/svg">
<g id="Lactosevrij" clip-path="url(#clip0)">
<g id="rondje">
<path id="Circel" d="M108.98 212.48C166.141 212.48 212.48 166.141 212.48 108.98C212.48 51.8185 166.141 5.48 108.98 5.48C51.8185 5.48 5.48 51.8185 5.48 108.98C5.48 166.141 51.8185 212.48 108.98 212.48Z" fill="#29ABE2" stroke="black" stroke-width="10.97" stroke-miterlimit="10"/>
<path id="Streep" d="M36.11 35.49L182.68 181.65" stroke="black" stroke-width="11" stroke-miterlimit="10"/>
</g>
<g id="Melkfles">
<path id="Vector" d="M66.48 86.48V173.48" stroke="black" stroke-width="11" stroke-miterlimit="10"/>
<path id="Vector_2" d="M151.48 86.48V173.48" stroke="black" stroke-width="11" stroke-miterlimit="10"/>
<path id="Vector_3" d="M85.48 50.48V28.48H133.48V50.48H85.48V50.48Z" stroke="black" stroke-width="11" stroke-linecap="round" stroke-linejoin="round"/>
<path id="Vector_4" d="M66.48 171.48C66.5495 175.025 67.5869 178.483 69.48 181.48C73.79 188.1 82.33 191.48 91.48 190.48" stroke="black" stroke-width="11" stroke-linecap="round" stroke-linejoin="round"/>
<path id="Vector_5" d="M93.48 190.48L126.22 190.66C135.38 191.66 143.91 188.28 148.22 181.66C150.122 178.667 151.16 175.206 151.22 171.66" stroke="black" stroke-width="11" stroke-linecap="round" stroke-linejoin="round"/>
<path id="Vector_6" d="M68.48 94.48C77.1975 93.6782 85.9877 94.3544 94.48 96.48C104.26 98.96 108.09 102.04 116.48 104.48C123.61 106.55 134.48 108.31 149.48 105.48" stroke="black" stroke-width="11" stroke-linecap="round" stroke-linejoin="round"/>
<path id="Vector_7" d="M66.48 90.48C65.6505 87.8778 65.6505 85.0822 66.48 82.48C66.9 81.3 68.09 78.48 75.48 73.48C81.84 69.16 83.2 69.69 85.48 67.48C88.09 64.97 90.68 60.07 89.48 49.48" stroke="black" stroke-width="11" stroke-linecap="round" stroke-linejoin="round"/>
<path id="Vector_8" d="M151.51 90.6C152.339 87.9977 152.339 85.2023 151.51 82.6C151.1 81.42 149.9 78.6 142.51 73.6C136.16 69.27 134.8 69.8 132.51 67.6C129.91 65.08 127.32 60.18 128.51 49.6" stroke="black" stroke-width="11" stroke-linecap="round" stroke-linejoin="round"/>
</g>
</g>
<defs>
<clipPath id="clip0">
<rect width="217.97" height="217.97" fill="white"/>
</clipPath>
</defs>
</svg>
