<svg width="102" height="124" viewBox="0 0 102 124" fill="none" xmlns="http://www.w3.org/2000/svg">
<g id="regenwolk">
<g id="wolk">
<path id="Wolk" d="M81.93 80.7C85.9579 79.5623 89.4824 77.0952 91.93 73.7C93.5279 71.2974 94.5541 68.5608 94.93 65.7C95.8958 60.2871 95.1985 54.7086 92.93 49.7C92.09 47.4118 90.7191 45.3555 88.93 43.7C88.0051 42.9271 86.9992 42.2565 85.93 41.7C80.77 38.36 84.93 29.52 79.93 22.7C78.4968 20.876 76.6775 19.392 74.6027 18.3546C72.5279 17.3172 70.2491 16.7521 67.93 16.7C66.2024 16.5556 64.4692 16.9022 62.93 17.7C59.86 19.45 58.93 22.99 57.93 22.7C57.42 22.55 57.38 21.43 57.28 20.7C56.85 17.33 54.38 15 51.93 12.7C48.51 9.45999 41.14 5.32999 33.93 7.69999C29.21 9.24999 26.62 12.91 23.93 16.7C21.5752 20.0132 19.8779 23.7473 18.93 27.7C18.2356 31.3248 17.9006 35.0094 17.93 38.7C17.93 41.23 18.01 40.9 17.93 41.7C17.26 48.39 10.5 49.57 7.93 55.7C4.93 62.84 9.99 71.15 10.93 72.7C12.9301 75.9589 15.671 78.6999 18.93 80.7H81.93Z" fill="#808080" stroke="#808080" stroke-width="12" stroke-miterlimit="10"/>
</g>
<g id="druplinks">
<path id="drup1" d="M21.56 95.7C20.78 95.7 19.88 98.04 19.93 100.14C19.93 101.65 20.49 103.63 21.24 103.7C21.99 103.77 22.68 102.01 22.87 100.59C23.17 98.38 22.37 95.75 21.56 95.7Z" fill="#808080" stroke="#808080" stroke-width="4.57" stroke-miterlimit="10"/>
<path id="drup3" d="M27.09 113.41C26.31 113.41 25.41 115.75 25.46 117.86C25.46 119.36 26.02 121.34 26.76 121.41C27.5 121.48 28.2 119.72 28.4 118.3C28.7 116.09 27.9 113.46 27.09 113.41Z" fill="#808080" stroke="#808080" stroke-width="4.57" stroke-miterlimit="10"/>
</g>
<g id="drupmidden">
<path id="drup2" d="M39.09 95.41C38.31 95.41 37.41 97.75 37.46 99.86C37.46 101.36 38.02 103.34 38.76 103.41C39.5 103.48 40.2 101.72 40.4 100.3C40.7 98.09 39.9 95.46 39.09 95.41Z" fill="#808080" stroke="#808080" stroke-width="4.57" stroke-miterlimit="10"/>
<path id="drup4" d="M47.09 113.41C46.31 113.41 45.41 115.75 45.46 117.86C45.46 119.36 46.02 121.34 46.76 121.41C47.5 121.48 48.2 119.72 48.4 118.3C48.7 116.09 47.9 113.46 47.09 113.41Z" fill="#808080" stroke="#808080" stroke-width="4.57" stroke-miterlimit="10"/>
<path id="drup5" d="M57.09 95.41C56.31 95.41 55.41 97.75 55.46 99.86C55.46 101.36 56.02 103.34 56.76 103.41C57.5 103.48 58.2 101.72 58.4 100.3C58.7 98.09 57.9 95.46 57.09 95.41Z" fill="#808080" stroke="#808080" stroke-width="4.57" stroke-miterlimit="10"/>
</g>
<g id="druprechts">
<path id="drup6" d="M77.09 95.41C76.31 95.41 75.41 97.75 75.46 99.86C75.46 101.36 76.02 103.34 76.76 103.41C77.5 103.48 78.2 101.72 78.4 100.3C78.7 98.09 77.9 95.46 77.09 95.41Z" fill="#808080" stroke="#808080" stroke-width="4.57" stroke-miterlimit="10"/>
<path id="drup7" d="M67.1 113.14C66.31 113.14 65.42 115.47 65.47 117.58C65.47 119.08 66.03 121.07 66.77 121.14C67.51 121.21 68.21 119.44 68.4 118.03C68.7 115.82 67.91 113.19 67.1 113.14Z" fill="#808080" stroke="#808080" stroke-width="4.57" stroke-miterlimit="10"/>
</g>
</g>
</svg>
